<svg width="32" height="32" viewBox="0 0 32 32" fill="none" xmlns="http://www.w3.org/2000/svg">
<path fill-rule="evenodd" clip-rule="evenodd" d="M5.6103 27.8515C8.49903 30.5248 12.2837 32.006 16.2103 31.9999C20.4094 31.9666 24.4252 30.2664 27.3827 27.2699C30.3403 24.2734 31.9999 20.2234 31.9999 16.0024C31.9999 11.7814 30.3403 7.73136 27.3827 4.73487C24.4252 1.73837 20.4094 0.0382433 16.2103 0.00490554C12.284 -0.00180684 8.49928 1.47867 5.6103 4.15135C3.96688 5.65197 2.65373 7.48142 1.75514 9.52223C0.856545 11.563 0.392334 13.7701 0.392334 16.0019C0.392334 18.2337 0.856545 20.4408 1.75514 22.4816C2.65373 24.5225 3.96688 26.3519 5.6103 27.8525V27.8515Z" fill="#E99F2B"/>
</svg>
