<svg width="32" height="32" viewBox="0 0 32 32" fill="none" xmlns="http://www.w3.org/2000/svg">
<path fill-rule="evenodd" clip-rule="evenodd" d="M31.7193 14.3115C31.6637 13.7347 31.5555 13.1859 31.4453 12.6091H21.7746C21.8905 12.0431 22.0363 11.4838 22.2114 10.9335H30.9827C30.7914 10.3547 30.5726 9.78719 30.3264 9.231H22.8954C23.1674 8.64887 23.4679 8.08138 23.7969 7.52852H29.3972C29.0382 6.94111 28.6367 6.38106 28.1959 5.85296H24.9971C25.4917 5.24536 26.0306 4.67561 26.6094 4.14846C24.3266 2.06717 21.4918 0.696836 18.4491 0.203865C15.4064 -0.289107 12.2868 0.11651 9.46907 1.37141C6.6513 2.62631 4.25657 4.6765 2.57568 7.27313C0.894781 9.86975 0 12.9011 0 15.999C0 19.097 0.894781 22.1283 2.57568 24.7249C4.25657 27.3216 6.6513 29.3718 9.46907 30.6267C12.2868 31.8816 15.4064 32.2871 18.4491 31.7942C21.4918 31.3012 24.3266 29.9309 26.6094 27.8496C27.1802 27.3322 27.7112 26.7721 28.1979 26.174H24.9971C24.5663 25.6289 24.1653 25.0606 23.7959 24.4716H29.3962C29.7487 23.9287 30.0593 23.3596 30.3254 22.7691H22.8944C22.6375 22.2223 22.4091 21.6624 22.2104 21.0916H30.9817C31.165 20.5324 31.3197 19.9642 31.4453 19.3891C31.6863 18.2799 31.8055 17.1474 31.8007 16.012C31.8007 15.4352 31.7739 14.8584 31.7193 14.3095V14.3115Z" fill="#BF0C24"/>
</svg>
