<svg width="51" height="10" viewBox="0 0 51 10" fill="none" xmlns="http://www.w3.org/2000/svg">
<path fill-rule="evenodd" clip-rule="evenodd" d="M36.0783 1.33352L35.7804 3.09191C35.3141 2.82141 34.7887 2.6706 34.2506 2.65281C32.9659 2.65281 32.0664 3.91422 32.0664 5.70053C32.0664 6.93698 32.6621 7.67844 33.6787 7.67844C34.1856 7.65297 34.6801 7.51241 35.1252 7.2673L34.8274 9.10548C34.34 9.2555 33.8348 9.33904 33.3253 9.35393C31.4678 9.35393 30.3181 8.00677 30.3181 5.83825C30.3181 2.95321 31.9066 0.921407 34.1702 0.921407C34.4373 0.916689 34.704 0.944825 34.9644 1.00522L35.6484 1.16986C35.8688 1.25169 35.9224 1.27866 36.0872 1.33254L36.0783 1.33352ZM30.5594 2.54306H30.3956C29.8218 2.54306 29.4941 2.81846 28.9739 3.61482L29.1377 2.59794H27.579L26.5148 9.19033H28.2353C28.8647 5.15267 29.0295 4.46608 29.8476 4.46608H29.9578C30.0835 3.80557 30.3038 3.16687 30.612 2.56998L30.5594 2.54306ZM20.6683 9.10548C20.2752 9.25193 19.8594 9.32693 19.4402 9.32701C19.2491 9.34478 19.0565 9.3186 18.8769 9.25045C18.6974 9.1823 18.5356 9.07395 18.4039 8.93366C18.2722 8.79336 18.1739 8.62483 18.1166 8.44072C18.0593 8.25661 18.0444 8.06178 18.0731 7.87104C18.0791 7.6778 18.0974 7.48514 18.1277 7.29422L18.2379 6.63458L18.3213 6.11466L19.057 1.60895H20.7526L20.561 2.5969H21.4337L21.2153 4.21757H20.3406L19.877 6.96391C19.856 7.05413 19.847 7.14675 19.8502 7.23935C19.8502 7.56767 20.014 7.70536 20.424 7.70536C20.5807 7.71942 20.7386 7.70074 20.8877 7.65048L20.6693 9.10445L20.6683 9.10548ZM14.0851 4.6856C14.08 5.08878 14.2011 5.48336 14.4312 5.81358C14.6614 6.1438 14.9891 6.39296 15.3678 6.52579C16.0786 6.85411 16.1888 6.96487 16.1888 7.23831C16.1888 7.65146 15.891 7.84411 15.204 7.84411C14.6844 7.83998 14.1685 7.75617 13.6741 7.5956L13.4289 9.10548L13.5103 9.13442L13.8081 9.1893C13.9597 9.22755 14.1155 9.24569 14.2718 9.2432C14.5797 9.28533 14.8903 9.30398 15.201 9.29905C17.0049 9.29905 17.8527 8.61152 17.8527 7.10364C17.8787 6.70708 17.7752 6.31282 17.5581 5.98072C17.3409 5.64861 17.0219 5.39674 16.6495 5.26339C15.9118 4.93307 15.8304 4.85229 15.8304 4.54892C15.8304 4.19166 16.1282 4.02699 16.6782 4.02699C17.0889 4.03045 17.499 4.05842 17.9063 4.1108L18.1536 2.60092C17.6565 2.51608 17.1536 2.47003 16.6495 2.4632C14.7334 2.46221 14.0523 3.47714 14.0811 4.68664L14.0851 4.6856ZM49.1652 9.1893H47.5529L47.6343 8.55663C47.4389 8.78544 47.1956 8.96809 46.9219 9.0916C46.6482 9.2151 46.3508 9.27642 46.0508 9.27116C44.7939 9.27116 43.9729 8.20135 43.9729 6.55375C43.9729 4.35829 45.2566 2.48915 46.7597 2.48915C47.0867 2.49083 47.408 2.57461 47.6946 2.73285C47.9812 2.89109 48.2239 3.11881 48.4007 3.3953L48.783 1.08702H50.4737L49.1622 9.1893H49.1652ZM46.6505 7.65146C47.4447 7.65146 47.9887 6.71738 47.9887 5.42705C47.9887 4.57481 47.6909 4.12974 47.0873 4.12974C46.3228 4.12974 45.749 5.03588 45.749 6.32522C45.7464 7.20939 46.0459 7.65183 46.6475 7.65249L46.6505 7.65146ZM25.9141 9.0486C25.3406 9.2355 24.7409 9.3285 24.1381 9.32403C22.224 9.32403 21.2411 8.30714 21.2411 6.35817C21.2411 4.10483 22.498 2.42928 24.2195 2.42928C24.5342 2.40981 24.8494 2.45872 25.1437 2.57266C25.4379 2.68659 25.7044 2.86286 25.9248 3.08953C26.1452 3.31621 26.3145 3.58798 26.4211 3.88629C26.5277 4.1846 26.5691 4.50247 26.5426 4.81832C26.5379 5.37449 26.4645 5.92793 26.3242 6.46592H22.9348C22.9145 6.52799 22.9054 6.59322 22.908 6.65851C22.908 7.42892 23.4272 7.81317 24.4101 7.81317C25.0269 7.82442 25.6369 7.68251 26.1862 7.40002L25.9141 9.0486ZM24.9561 5.12171V4.79439C24.9703 4.68167 24.9591 4.56717 24.9233 4.45938C24.8876 4.3516 24.8282 4.25327 24.7496 4.17165C24.671 4.09003 24.5751 4.02721 24.4691 3.98782C24.3631 3.94844 24.2496 3.93354 24.137 3.94415C23.591 3.94415 23.2078 4.35529 23.045 5.1247L24.9561 5.12171ZM7.55058 9.18534H5.85689L6.83974 2.95017L4.62685 9.18534H3.45237L3.31536 3.00706L2.27789 9.18534H0.689453L2.02772 1.08306H4.48784L4.56925 6.10869L6.20834 1.08306H8.88887L7.55058 9.18534ZM11.7858 6.2464C11.622 6.2464 11.5406 6.21942 11.4036 6.21942C10.4475 6.21942 9.9551 6.57671 9.9551 7.23435C9.9432 7.31856 9.94992 7.40435 9.97476 7.48566C9.99961 7.56697 10.042 7.64177 10.0988 7.70475C10.1557 7.76773 10.2257 7.81738 10.3038 7.85008C10.3819 7.88279 10.4662 7.89778 10.5508 7.894C11.2666 7.89899 11.755 7.23832 11.7858 6.25036V6.2464ZM13.0456 9.18534H11.624L11.6508 8.49773C11.4365 8.76719 11.1605 8.98054 10.8464 9.11955C10.5322 9.25857 10.1894 9.31912 9.84691 9.29607C9.62422 9.29316 9.4046 9.2432 9.20236 9.14946C9.00012 9.05572 8.81977 8.92032 8.67297 8.75197C8.52618 8.58361 8.41625 8.38612 8.35031 8.17229C8.28437 7.95847 8.26387 7.73305 8.2902 7.51076C8.2902 5.89011 9.38227 4.95604 11.2954 4.95604C11.487 4.95604 11.7342 4.98298 12.0062 5.01092C12.0443 4.87731 12.0624 4.73875 12.0598 4.59978C12.0598 4.16069 11.762 4.00104 10.9678 4.00104C10.4895 3.99472 10.0124 4.05003 9.54809 4.16568L9.30086 4.24754L9.13707 4.27647L9.38427 2.79351C10.0465 2.57902 10.7376 2.46763 11.4334 2.4632C12.9087 2.4632 13.7009 3.12087 13.7009 4.38526C13.6906 4.82767 13.6448 5.26852 13.5639 5.70352L13.1817 8.03866L13.1271 8.44986L13.1002 8.78017L13.0735 9.02667L13.0466 9.19131L13.0456 9.18534ZM38.8372 6.2464C38.6456 6.2464 38.5632 6.21942 38.455 6.21942C37.4702 6.21942 36.9778 6.57671 36.9778 7.23435C36.9688 7.32088 36.9787 7.40831 37.0068 7.4906C37.0348 7.57289 37.0804 7.64806 37.1403 7.71084C37.2002 7.77363 37.273 7.82254 37.3537 7.85416C37.4343 7.88579 37.5208 7.8994 37.6072 7.894C38.2912 7.894 38.8084 7.23436 38.8372 6.2464ZM40.0941 9.18534H38.6724L38.6992 8.49773C38.4848 8.76706 38.2088 8.98031 37.8947 9.11931C37.5806 9.25832 37.2378 9.31895 36.8954 9.29607C36.6727 9.29316 36.4531 9.2432 36.2508 9.14946C36.0486 9.05572 35.8682 8.92032 35.7214 8.75197C35.5746 8.58361 35.4647 8.38612 35.3988 8.17229C35.3328 7.95847 35.3123 7.73305 35.3387 7.51076C35.3387 5.89011 36.4307 4.95604 38.3438 4.95604C38.5354 4.95604 38.7807 4.98298 39.0279 5.01092C39.0713 4.87764 39.0986 4.73961 39.1093 4.59978C39.1093 4.16069 38.8114 4.00104 38.0172 4.00104C37.5301 3.99484 37.0441 4.05013 36.5707 4.16568L36.3503 4.24754L36.1865 4.27647L36.4337 2.79351C37.096 2.57902 37.787 2.46763 38.4828 2.4632C39.9581 2.4632 40.7226 3.12087 40.7226 4.38526C40.7265 4.82847 40.6805 5.2707 40.5855 5.70352L40.2301 8.03866L40.1765 8.44986L40.1219 8.78017L40.0951 9.02667V9.19131L40.0941 9.18534ZM44.6828 2.53904H44.517C43.9451 2.53904 43.6175 2.8145 43.0973 3.61086L43.2611 2.59392H41.7024L40.664 9.18631H42.3596C42.9871 5.14865 43.1539 4.46206 43.9719 4.46206H44.0801C44.2056 3.80121 44.4267 3.16243 44.7364 2.56602L44.6828 2.53904Z" fill="white"/>
</svg>
