<svg width="17" height="16" viewBox="0 0 17 16" fill="none" xmlns="http://www.w3.org/2000/svg">
<path d="M6.5799 13.448L12.3057 13.4536C12.4417 13.994 12.8497 15.7771 12.8497 15.7771H16.9996L13.3789 0.281844H9.92964C9.44429 0.222396 8.95174 0.315877 8.52826 0.547796C8.10478 0.779714 7.77398 1.13715 7.58708 1.56475L0.946777 15.7771H5.64564C5.64564 15.7771 6.40546 13.8672 6.5799 13.448ZM9.64483 5.93794C9.62216 5.97986 10.0144 5.04074 10.2361 4.45752L10.5387 5.79444C10.5387 5.79444 11.3921 9.49871 11.5715 10.272H7.86696C8.23554 9.38132 9.64089 5.93885 9.64089 5.93885L9.64483 5.93794Z" fill="#004A89"/>
</svg>
