<svg width="14" height="16" viewBox="0 0 14 16" fill="none" xmlns="http://www.w3.org/2000/svg">
<path d="M13.2633 10.7022C13.2791 8.94047 12.0807 7.59795 9.50657 6.48928C7.9406 5.77377 6.98562 5.29488 6.99745 4.56819C6.99745 3.92628 7.80656 3.23593 9.55977 3.23593C10.7063 3.21174 11.8456 3.4142 12.9046 3.83033L13.3087 4.00641L13.9167 0.646861C12.6307 0.209768 11.2732 -0.00911958 9.90666 0.000291022C5.48962 0.000291022 2.37936 2.10024 2.3498 5.11602C2.32319 7.34547 4.57313 8.58644 6.27017 9.32897C8.01057 10.0864 8.59299 10.5718 8.58215 11.2501C8.57032 12.2907 7.19653 12.7631 5.91044 12.7631C4.45834 12.8037 3.01612 12.525 1.6974 11.9488L1.12582 11.701L0.49707 15.177C2.09097 15.7327 3.77801 16.0114 5.47681 15.9996C10.1728 15.9987 13.2278 13.9239 13.2633 10.7022Z" fill="#004A89"/>
</svg>
