<svg width="15" height="11" viewBox="0 0 15 11" fill="none" xmlns="http://www.w3.org/2000/svg">
<path d="M0 9.60864C0.00133717 9.97814 0.151009 10.3321 0.416228 10.5929C0.681447 10.8537 1.04059 11.0001 1.415 11.0001H13.585C13.9594 11.0001 14.3186 10.8537 14.5838 10.5929C14.849 10.3321 14.9987 9.97814 15 9.60864V0.930664H0V9.60864ZM7.075 7.86806C7.11993 7.39856 7.26002 6.94278 7.48695 6.52777C7.71388 6.11275 8.02302 5.74698 8.396 5.45219C9.09541 4.72802 9.27835 4.50359 9.27835 3.93903C9.27835 3.51011 9.16616 3.17497 8.67192 3.17497C8.17769 3.17497 8.02709 3.53206 8.00384 4.10261H7.11138C7.08791 3.88932 7.11245 3.67355 7.18324 3.4707C7.25404 3.26785 7.36934 3.08292 7.52092 2.92914C7.6725 2.77535 7.85662 2.6565 8.06013 2.58105C8.26364 2.5056 8.48151 2.47542 8.6982 2.49268C8.90216 2.46457 9.10993 2.48291 9.30559 2.54629C9.50126 2.60966 9.67963 2.71641 9.82704 2.85833C9.97446 3.00025 10.087 3.17357 10.156 3.36504C10.2251 3.55652 10.2488 3.76103 10.2254 3.96295C10.2254 4.63226 10.0232 4.98738 9.26016 5.72451C8.78529 6.12832 8.40375 6.62799 8.1413 7.18979H10.382L10.2567 7.91892H7.075V7.86806ZM4.67657 2.96749C5.047 2.91625 5.39635 2.76662 5.68728 2.5346H6.30281V7.92093H5.38104V3.53207C5.14897 3.58541 4.91179 3.61417 4.67354 3.61785L4.67657 2.96749Z" fill="#030303"/>
</svg>
