<svg width="15" height="4" viewBox="0 0 15 4" fill="none" xmlns="http://www.w3.org/2000/svg">
<path d="M13.585 1.21691H12.0982V0.498732C12.0982 0.36646 12.045 0.239613 11.9502 0.146082C11.8555 0.052552 11.7269 0 11.5929 0C11.4589 0 11.3303 0.052552 11.2356 0.146082C11.1408 0.239613 11.0875 0.36646 11.0875 0.498732V1.21292H3.91146V0.498732C3.91146 0.36646 3.85822 0.239613 3.76345 0.146082C3.66868 0.052552 3.54014 0 3.40611 0C3.27208 0 3.14354 0.052552 3.04877 0.146082C2.954 0.239613 2.90075 0.36646 2.90075 0.498732V1.21292H1.415C1.04059 1.21292 0.681447 1.35937 0.416228 1.62018C0.151009 1.88099 0.00133717 2.2349 0 2.6044V3.85619H14.996V2.6044C14.9936 2.23629 14.844 1.884 14.5798 1.62417C14.3155 1.36433 13.958 1.21795 13.585 1.21691Z" fill="#030303"/>
</svg>
