<svg width="25" height="25" viewBox="0 0 25 25" fill="none" xmlns="http://www.w3.org/2000/svg">
<path d="M18.2327 0H6.76726C3.03573 0 0 3.03573 0 6.76726V18.2329C0 21.9642 3.03573 25 6.76726 25H18.2329C21.9642 25 25 21.9642 25 18.2329V6.76726C25 3.03573 21.9642 0 18.2327 0V0ZM12.5 19.3357C8.73068 19.3357 5.66424 16.2693 5.66424 12.5C5.66424 8.73068 8.73068 5.66424 12.5 5.66424C16.2693 5.66424 19.3357 8.73068 19.3357 12.5C19.3357 16.2693 16.2693 19.3357 12.5 19.3357ZM19.4992 7.27633C18.3853 7.27633 17.4793 6.37034 17.4793 5.25645C17.4793 4.14256 18.3853 3.23638 19.4992 3.23638C20.6131 3.23638 21.5192 4.14256 21.5192 5.25645C21.5192 6.37034 20.6131 7.27633 19.4992 7.27633Z" fill="#FFF5E5"/>
<path d="M12.5 7.12985C9.53899 7.12985 7.12982 9.53883 7.12982 12.5C7.12982 15.4609 9.53899 17.8701 12.5 17.8701C15.4611 17.8701 17.8701 15.4609 17.8701 12.5C17.8701 9.53883 15.4611 7.12985 12.5 7.12985Z" fill="#FFF5E5"/>
<path d="M19.4992 4.70218C19.1936 4.70218 18.9449 4.9509 18.9449 5.25645C18.9449 5.56201 19.1936 5.81073 19.4992 5.81073C19.8049 5.81073 20.0536 5.5622 20.0536 5.25645C20.0536 4.95071 19.8049 4.70218 19.4992 4.70218Z" fill="#FFF5E5"/>
</svg>
