<svg width="25" height="25" viewBox="0 0 25 25" fill="none" xmlns="http://www.w3.org/2000/svg">
<path d="M5.81936 8.04276H0.800565C0.577823 8.04276 0.397339 8.22332 0.397339 8.44598V24.5692C0.397339 24.7919 0.577823 24.9724 0.800565 24.9724H5.81936C6.0421 24.9724 6.22258 24.7919 6.22258 24.5692V8.44598C6.22258 8.22332 6.0421 8.04276 5.81936 8.04276Z" fill="#FFF5E5"/>
<path d="M3.31177 0.0274963C1.48565 0.0274963 0 1.51153 0 3.33564C0 5.16056 1.48565 6.64516 3.31177 6.64516C5.13645 6.64516 6.62089 5.16048 6.62089 3.33564C6.62097 1.51153 5.13645 0.0274963 3.31177 0.0274963Z" fill="#FFF5E5"/>
<path d="M18.585 7.64203C16.5693 7.64203 15.0792 8.50856 14.1754 9.49316V8.44598C14.1754 8.22332 13.9949 8.04276 13.7722 8.04276H8.96582C8.74308 8.04276 8.56259 8.22332 8.56259 8.44598V24.5692C8.56259 24.792 8.74308 24.9724 8.96582 24.9724H13.9736C14.1964 24.9724 14.3769 24.792 14.3769 24.5692V16.592C14.3769 13.9038 15.107 12.8565 16.9809 12.8565C19.0217 12.8565 19.1839 14.5354 19.1839 16.7303V24.5693C19.1839 24.792 19.3644 24.9725 19.5871 24.9725H24.5968C24.8195 24.9725 25 24.792 25 24.5693V15.7254C25 11.7282 24.2378 7.64203 18.585 7.64203Z" fill="#FFF5E5"/>
</svg>
