<svg width="269" height="98" viewBox="0 0 269 98" fill="none" xmlns="http://www.w3.org/2000/svg">
<path d="M57.8 60.75H33.425L28.775 72H16.325L39.725 19.5H51.725L75.2 72H62.45L57.8 60.75ZM53.975 51.525L45.65 31.425L37.325 51.525H53.975ZM155.347 72L145.222 57.375H144.622H134.047V72H121.897V19.5H144.622C149.272 19.5 153.297 20.275 156.697 21.825C160.147 23.375 162.797 25.575 164.647 28.425C166.497 31.275 167.422 34.65 167.422 38.55C167.422 42.45 166.472 45.825 164.572 48.675C162.722 51.475 160.072 53.625 156.622 55.125L168.397 72H155.347ZM155.122 38.55C155.122 35.6 154.172 33.35 152.272 31.8C150.372 30.2 147.597 29.4 143.947 29.4H134.047V47.7H143.947C147.597 47.7 150.372 46.9 152.272 45.3C154.172 43.7 155.122 41.45 155.122 38.55ZM228.441 29.4H211.641V19.5H257.391V29.4H240.591V72H228.441V29.4Z" fill="white"/>
<path d="M12.9839 50.019H17.103L12.7334 61.959C13.9766 59.8438 15.1455 58.0068 16.2402 56.4482C17.3535 54.8896 18.4482 53.6001 19.5244 52.5796C20.6191 51.5405 21.7324 50.7705 22.8643 50.2695C24.0146 49.75 25.2393 49.4902 26.5381 49.4902C27.6699 49.4902 28.6626 49.6758 29.5161 50.0469C30.3882 50.418 31.1118 50.9375 31.687 51.6055C32.2808 52.2734 32.7261 53.0806 33.0229 54.0269C33.3198 54.9731 33.4683 56.0122 33.4683 57.144C33.4683 57.8491 33.4033 58.6191 33.2734 59.4541C33.1436 60.2705 32.9023 61.2725 32.5498 62.46C33.793 60.3076 34.9712 58.4243 36.0845 56.8101C37.1978 55.1958 38.3018 53.8506 39.3965 52.7744C40.5098 51.6797 41.6416 50.8633 42.792 50.3252C43.9609 49.7686 45.2041 49.4902 46.5215 49.4902C47.6719 49.4902 48.6831 49.6851 49.5552 50.0747C50.4458 50.4644 51.1787 50.9839 51.7539 51.6333C52.3477 52.2827 52.793 53.0527 53.0898 53.9434C53.3867 54.8154 53.5352 55.7339 53.5352 56.6987C53.5352 57.7378 53.3774 58.8789 53.062 60.1221C52.7651 61.3652 52.3848 62.6455 51.9209 63.9629C51.457 65.2803 50.9561 66.6162 50.418 67.9707C49.8799 69.3066 49.3789 70.5962 48.915 71.8394C48.4512 73.0825 48.0615 74.2515 47.7461 75.3462C47.4492 76.4224 47.3008 77.3687 47.3008 78.1851C47.3008 79.3169 47.644 80.2632 48.3306 81.0239C49.0356 81.7661 50.1304 82.1372 51.6147 82.1372C54.0083 82.1372 56.3184 81.0518 58.5449 78.8809C60.79 76.71 63.1279 73.4351 65.5586 69.0562L66.978 66.4956L67.7295 67.0244L66.2822 69.585C64.9648 71.9229 63.6938 73.9731 62.4692 75.7358C61.2446 77.48 60.02 78.9272 58.7954 80.0776C57.5708 81.228 56.3184 82.0908 55.0381 82.666C53.7578 83.2412 52.4033 83.5288 50.9746 83.5288C49.8057 83.5288 48.7852 83.3525 47.9131 83C47.041 82.6475 46.3081 82.165 45.7144 81.5527C45.1206 80.9404 44.6753 80.2354 44.3784 79.4375C44.0815 78.6211 43.9331 77.7583 43.9331 76.8491C43.9331 75.8843 44.0815 74.7988 44.3784 73.5928C44.6938 72.3867 45.0835 71.1343 45.5474 69.8354C46.0112 68.5366 46.5122 67.2192 47.0503 65.8833C47.5884 64.5288 48.0894 63.2207 48.5532 61.959C49.0171 60.6787 49.3975 59.4727 49.6943 58.3408C50.0098 57.1904 50.1675 56.1699 50.1675 55.2793C50.1675 54.667 50.084 54.0918 49.917 53.5537C49.75 53.0156 49.4902 52.5518 49.1377 52.1621C48.7852 51.7539 48.3398 51.4385 47.8018 51.2158C47.2637 50.9932 46.6235 50.8818 45.8813 50.8818C44.7124 50.8818 43.5898 51.1787 42.5137 51.7725C41.4375 52.3477 40.3613 53.2104 39.2852 54.3608C38.209 55.5112 37.105 56.9307 35.9731 58.6191C34.8599 60.3076 33.6816 62.2559 32.4385 64.4639L31.0469 66.9409L25.2021 83H21.083L27.0669 66.4956C27.5493 65.1411 27.9761 63.9258 28.3472 62.8496C28.7368 61.7549 29.0615 60.7715 29.3213 59.8994C29.5811 59.0088 29.7759 58.2109 29.9058 57.5059C30.0356 56.7822 30.1006 56.1143 30.1006 55.502C30.1006 54.1104 29.748 52.9971 29.043 52.1621C28.3564 51.3086 27.2803 50.8818 25.8145 50.8818C24.6455 50.8818 23.5229 51.1694 22.4468 51.7446C21.3892 52.3198 20.3223 53.1733 19.2461 54.3052C18.1699 55.437 17.0659 56.8564 15.9341 58.5635C14.8208 60.252 13.6333 62.2188 12.3716 64.4639L10.9243 67.0244L5.07959 83H0.960449L12.9839 50.019ZM72.9897 50.019H77.1089L70.0117 69.5015C69.752 70.2251 69.4922 70.9673 69.2324 71.728C68.9727 72.4702 68.7407 73.2124 68.5366 73.9546C68.3511 74.6782 68.1934 75.3833 68.0635 76.0698C67.9521 76.7378 67.8965 77.3594 67.8965 77.9346C67.8965 79.2148 68.2397 80.2354 68.9263 80.9961C69.6128 81.7568 70.6611 82.1372 72.0713 82.1372C73.3145 82.1372 74.5205 81.8682 75.6895 81.3301C76.8584 80.792 78.0088 79.9849 79.1406 78.9087C80.291 77.814 81.4414 76.4502 82.5918 74.8174C83.7422 73.1846 84.9297 71.2642 86.1543 69.0562L87.5181 66.6069L93.5854 50.019H97.7046L90.6074 69.5015C90.3477 70.2251 90.0879 70.9673 89.8281 71.728C89.5684 72.4702 89.3364 73.2124 89.1323 73.9546C88.9468 74.6782 88.7891 75.3833 88.6592 76.0698C88.5479 76.7378 88.4922 77.3594 88.4922 77.9346C88.4922 79.2148 88.8262 80.2354 89.4941 80.9961C90.1807 81.7568 91.2383 82.1372 92.667 82.1372C93.9102 82.1372 95.1069 81.8682 96.2573 81.3301C97.4263 80.792 98.5767 79.9849 99.7085 78.9087C100.859 77.814 102.009 76.4502 103.16 74.8174C104.31 73.166 105.507 71.2456 106.75 69.0562L108.197 66.4956L108.921 67.0244L107.501 69.585C106.166 71.9971 104.876 74.0845 103.633 75.8472C102.408 77.5913 101.174 79.0386 99.9312 80.189C98.7065 81.3208 97.4448 82.165 96.146 82.7217C94.8657 83.2598 93.502 83.5288 92.0547 83.5288C90.9229 83.5288 89.9209 83.3525 89.0488 83C88.1953 82.666 87.4717 82.1836 86.8779 81.5527C86.3027 80.9219 85.8667 80.1611 85.5698 79.2705C85.2729 78.3799 85.1245 77.3872 85.1245 76.2925C85.1245 75.5688 85.1895 74.7896 85.3193 73.9546C85.4492 73.1011 85.644 72.229 85.9038 71.3384C84.6606 73.4351 83.4639 75.2534 82.3135 76.7935C81.1631 78.3149 80.0127 79.5767 78.8623 80.5786C77.7119 81.5806 76.5244 82.3228 75.2998 82.8052C74.0938 83.2876 72.8135 83.5288 71.459 83.5288C70.3271 83.5288 69.3252 83.3525 68.4531 83C67.5996 82.666 66.8853 82.1836 66.3101 81.5527C65.7163 80.9219 65.271 80.1611 64.9741 79.2705C64.6772 78.3799 64.5288 77.3872 64.5288 76.2925C64.5288 75.3276 64.6494 74.27 64.8906 73.1196C65.1133 71.9692 65.4473 70.7632 65.8926 69.5015L72.9897 50.019ZM104.496 75.4575C104.496 74.5112 104.598 73.5742 104.802 72.6465C105.006 71.7002 105.284 70.8188 105.637 70.0024C105.989 69.186 106.397 68.4624 106.861 67.8315C107.325 67.1821 107.817 66.6719 108.336 66.3008L120.082 49.2119C120.286 47.709 120.638 46.5029 121.139 45.5938C121.64 44.6846 122.243 44.23 122.948 44.23C123.505 44.23 123.969 44.3784 124.34 44.6753C124.711 44.9722 124.896 45.334 124.896 45.7607C124.896 46.0762 124.822 46.3545 124.674 46.5957C124.525 46.8369 124.266 47.1152 123.895 47.4307C123.468 47.7832 123.106 48.1172 122.809 48.4326C122.531 48.748 122.299 49.0635 122.113 49.3789C121.928 49.6943 121.798 50.0283 121.724 50.3809C121.649 50.7334 121.612 51.1138 121.612 51.522C121.612 51.9302 121.64 52.3569 121.696 52.8022C121.77 53.2476 121.891 53.8135 122.058 54.5C122.225 55.1865 122.457 56.04 122.753 57.0605C123.069 58.0811 123.468 59.3706 123.95 60.9292C124.433 62.4878 124.785 63.9722 125.008 65.3823C125.249 66.7925 125.37 68.1655 125.37 69.5015C125.37 74.604 123.523 78.4727 119.831 81.1074C118.736 81.8867 117.549 82.4897 116.269 82.9165C115.007 83.3247 113.727 83.5288 112.428 83.5288C111.203 83.5288 110.099 83.3433 109.116 82.9722C108.132 82.5825 107.307 82.0444 106.639 81.3579C105.952 80.6528 105.423 79.8086 105.052 78.8252C104.681 77.8232 104.496 76.7007 104.496 75.4575ZM119.915 51.2158L109.979 65.7163C110.572 65.7163 111.045 65.9111 111.398 66.3008C111.75 66.6904 111.927 67.21 111.927 67.8594C111.927 68.1934 111.88 68.5181 111.788 68.8335C111.695 69.1304 111.565 69.3901 111.398 69.6128C111.231 69.8354 111.036 70.021 110.813 70.1694C110.591 70.2993 110.359 70.3643 110.118 70.3643C109.802 70.3643 109.533 70.2993 109.311 70.1694C109.088 70.0396 108.81 69.9746 108.476 69.9746C108.086 69.9746 107.724 70.1138 107.39 70.3921C107.038 70.6519 106.741 71.0229 106.5 71.5054C106.24 71.9878 106.045 72.563 105.915 73.231C105.767 73.8804 105.692 74.5947 105.692 75.374C105.692 76.4131 105.841 77.3501 106.138 78.1851C106.416 79.02 106.833 79.7344 107.39 80.3281C107.928 80.9033 108.578 81.3486 109.338 81.6641C110.118 81.9795 110.999 82.1372 111.982 82.1372C113.281 82.1372 114.487 81.8589 115.601 81.3022C116.714 80.7456 117.688 79.9385 118.523 78.8809C120.527 76.3203 121.529 72.4609 121.529 67.3027C121.529 66.6719 121.51 66.0503 121.473 65.438C121.455 64.8071 121.408 64.1577 121.334 63.4897C121.278 62.8032 121.195 62.0703 121.083 61.291C120.972 60.5117 120.842 59.6304 120.694 58.647C120.434 56.9956 120.239 55.6133 120.109 54.5C119.979 53.3867 119.915 52.4868 119.915 51.8003V51.2158ZM146.271 83.5288C142.913 83.5288 140.325 82.6567 138.506 80.9126C136.688 79.1499 135.779 76.5337 135.779 73.064C135.779 72.1177 135.853 71.1157 136.001 70.0581C136.131 69.0005 136.345 67.915 136.642 66.8018C137.31 64.3154 138.247 62.0146 139.453 59.8994C140.677 57.7842 142.078 55.9565 143.655 54.4165C145.232 52.8765 146.93 51.6704 148.749 50.7983C150.567 49.9263 152.395 49.4902 154.231 49.4902C156.087 49.4902 157.543 49.9263 158.601 50.7983C159.677 51.6704 160.215 52.895 160.215 54.4722C160.215 55.3628 160.039 56.2349 159.687 57.0884C159.334 57.9419 158.824 58.749 158.156 59.5098C157.488 60.2705 156.681 60.9849 155.734 61.6528C154.807 62.3022 153.758 62.8682 152.589 63.3506C151.142 63.9629 149.546 64.4268 147.802 64.7422C146.058 65.0391 144.073 65.1875 141.846 65.1875C141.308 66.6904 140.881 68.2583 140.566 69.8911C140.269 71.5054 140.121 73.1567 140.121 74.8452C140.121 77.4243 140.659 79.2891 141.735 80.4395C142.83 81.5713 144.546 82.1372 146.884 82.1372C148.832 82.1372 150.688 81.7661 152.45 81.0239C154.213 80.2632 155.846 79.2705 157.349 78.0459C158.852 76.8213 160.225 75.4297 161.468 73.8711C162.711 72.2939 163.796 70.689 164.724 69.0562L166.171 66.4956L166.923 67.0244L165.476 69.585C164.325 71.6074 163.063 73.4722 161.69 75.1792C160.336 76.8862 158.852 78.3613 157.237 79.6045C155.642 80.8291 153.925 81.7939 152.088 82.499C150.27 83.1855 148.331 83.5288 146.271 83.5288ZM155.011 50.6035C153.842 50.6035 152.645 50.9468 151.42 51.6333C150.214 52.3198 149.045 53.2754 147.914 54.5C146.782 55.7061 145.724 57.1348 144.741 58.7861C143.757 60.4375 142.904 62.2373 142.18 64.1855C144.221 64.1484 145.965 63.9722 147.413 63.6567C148.86 63.3228 150.122 62.9053 151.198 62.4043C152.051 62.0146 152.877 61.5137 153.675 60.9014C154.491 60.2705 155.206 59.5562 155.818 58.7583C156.449 57.9604 156.95 57.0977 157.321 56.1699C157.71 55.2422 157.905 54.2773 157.905 53.2754C157.905 52.7744 157.831 52.3569 157.683 52.0229C157.534 51.689 157.33 51.4199 157.07 51.2158C156.811 50.9932 156.504 50.8354 156.152 50.7427C155.799 50.6499 155.419 50.6035 155.011 50.6035ZM172.183 50.019H176.302L169.205 69.5015C168.945 70.2251 168.686 70.9673 168.426 71.728C168.166 72.4702 167.934 73.2124 167.73 73.9546C167.544 74.6782 167.387 75.3833 167.257 76.0698C167.146 76.7378 167.09 77.3594 167.09 77.9346C167.09 79.2148 167.433 80.2354 168.12 80.9961C168.806 81.7568 169.854 82.1372 171.265 82.1372C172.508 82.1372 173.714 81.8682 174.883 81.3301C176.052 80.792 177.202 79.9849 178.334 78.9087C179.484 77.814 180.635 76.4502 181.785 74.8174C182.936 73.1846 184.123 71.2642 185.348 69.0562L186.711 66.6069L192.779 50.019H196.898L189.801 69.5015C189.541 70.2251 189.281 70.9673 189.021 71.728C188.762 72.4702 188.53 73.2124 188.326 73.9546C188.14 74.6782 187.982 75.3833 187.853 76.0698C187.741 76.7378 187.686 77.3594 187.686 77.9346C187.686 79.2148 188.02 80.2354 188.688 80.9961C189.374 81.7568 190.432 82.1372 191.86 82.1372C193.104 82.1372 194.3 81.8682 195.451 81.3301C196.62 80.792 197.77 79.9849 198.902 78.9087C200.052 77.814 201.203 76.4502 202.353 74.8174C203.503 73.166 204.7 71.2456 205.943 69.0562L207.391 66.4956L208.114 67.0244L206.695 69.585C205.359 71.9971 204.069 74.0845 202.826 75.8472C201.602 77.5913 200.368 79.0386 199.125 80.189C197.9 81.3208 196.638 82.165 195.339 82.7217C194.059 83.2598 192.695 83.5288 191.248 83.5288C190.116 83.5288 189.114 83.3525 188.242 83C187.389 82.666 186.665 82.1836 186.071 81.5527C185.496 80.9219 185.06 80.1611 184.763 79.2705C184.466 78.3799 184.318 77.3872 184.318 76.2925C184.318 75.5688 184.383 74.7896 184.513 73.9546C184.643 73.1011 184.837 72.229 185.097 71.3384C183.854 73.4351 182.657 75.2534 181.507 76.7935C180.356 78.3149 179.206 79.5767 178.056 80.5786C176.905 81.5806 175.718 82.3228 174.493 82.8052C173.287 83.2876 172.007 83.5288 170.652 83.5288C169.521 83.5288 168.519 83.3525 167.646 83C166.793 82.666 166.079 82.1836 165.503 81.5527C164.91 80.9219 164.464 80.1611 164.167 79.2705C163.871 78.3799 163.722 77.3872 163.722 76.2925C163.722 75.3276 163.843 74.27 164.084 73.1196C164.307 71.9692 164.641 70.7632 165.086 69.5015L172.183 50.019ZM213.375 50.019H217.494L213.124 61.959C214.367 59.8438 215.536 58.0068 216.631 56.4482C217.744 54.8896 218.839 53.6001 219.915 52.5796C221.01 51.5405 222.123 50.7705 223.255 50.2695C224.405 49.75 225.63 49.4902 226.929 49.4902C228.061 49.4902 229.053 49.6758 229.907 50.0469C230.779 50.418 231.502 50.9375 232.078 51.6055C232.671 52.2734 233.117 53.0806 233.414 54.0269C233.71 54.9731 233.859 56.0122 233.859 57.144C233.859 57.8491 233.794 58.6191 233.664 59.4541C233.534 60.2705 233.293 61.2725 232.94 62.46C234.184 60.3076 235.362 58.4243 236.475 56.8101C237.588 55.1958 238.692 53.8506 239.787 52.7744C240.9 51.6797 242.032 50.8633 243.183 50.3252C244.352 49.7686 245.595 49.4902 246.912 49.4902C248.062 49.4902 249.074 49.6851 249.946 50.0747C250.836 50.4644 251.569 50.9839 252.145 51.6333C252.738 52.2827 253.184 53.0527 253.48 53.9434C253.777 54.8154 253.926 55.7339 253.926 56.6987C253.926 57.7378 253.768 58.8789 253.453 60.1221C253.156 61.3652 252.775 62.6455 252.312 63.9629C251.848 65.2803 251.347 66.6162 250.809 67.9707C250.271 69.3066 249.77 70.5962 249.306 71.8394C248.842 73.0825 248.452 74.2515 248.137 75.3462C247.84 76.4224 247.691 77.3687 247.691 78.1851C247.691 79.3169 248.035 80.2632 248.721 81.0239C249.426 81.7661 250.521 82.1372 252.005 82.1372C254.399 82.1372 256.709 81.0518 258.936 78.8809C261.181 76.71 263.519 73.4351 265.949 69.0562L267.369 66.4956L268.12 67.0244L266.673 69.585C265.355 71.9229 264.084 73.9731 262.86 75.7358C261.635 77.48 260.411 78.9272 259.186 80.0776C257.961 81.228 256.709 82.0908 255.429 82.666C254.148 83.2412 252.794 83.5288 251.365 83.5288C250.196 83.5288 249.176 83.3525 248.304 83C247.432 82.6475 246.699 82.165 246.105 81.5527C245.511 80.9404 245.066 80.2354 244.769 79.4375C244.472 78.6211 244.324 77.7583 244.324 76.8491C244.324 75.8843 244.472 74.7988 244.769 73.5928C245.084 72.3867 245.474 71.1343 245.938 69.8354C246.402 68.5366 246.903 67.2192 247.441 65.8833C247.979 64.5288 248.48 63.2207 248.944 61.959C249.408 60.6787 249.788 59.4727 250.085 58.3408C250.4 57.1904 250.558 56.1699 250.558 55.2793C250.558 54.667 250.475 54.0918 250.308 53.5537C250.141 53.0156 249.881 52.5518 249.528 52.1621C249.176 51.7539 248.73 51.4385 248.192 51.2158C247.654 50.9932 247.014 50.8818 246.272 50.8818C245.103 50.8818 243.98 51.1787 242.904 51.7725C241.828 52.3477 240.752 53.2104 239.676 54.3608C238.6 55.5112 237.496 56.9307 236.364 58.6191C235.25 60.3076 234.072 62.2559 232.829 64.4639L231.438 66.9409L225.593 83H221.474L227.458 66.4956C227.94 65.1411 228.367 63.9258 228.738 62.8496C229.127 61.7549 229.452 60.7715 229.712 59.8994C229.972 59.0088 230.167 58.2109 230.296 57.5059C230.426 56.7822 230.491 56.1143 230.491 55.502C230.491 54.1104 230.139 52.9971 229.434 52.1621C228.747 51.3086 227.671 50.8818 226.205 50.8818C225.036 50.8818 223.914 51.1694 222.837 51.7446C221.78 52.3198 220.713 53.1733 219.637 54.3052C218.561 55.437 217.457 56.8564 216.325 58.5635C215.211 60.252 214.024 62.2188 212.762 64.4639L211.315 67.0244L205.47 83H201.351L213.375 50.019Z" fill="#FFF5E5"/>
</svg>
