<svg width="25" height="25" viewBox="0 0 25 25" fill="none" xmlns="http://www.w3.org/2000/svg">
<g clip-path="url(#clip0)">
<path d="M24.4469 6.17604L24.4781 6.3802C24.176 5.30833 23.3604 4.48124 22.324 4.1802L22.3021 4.17499C20.3531 3.64583 12.5104 3.64583 12.5104 3.64583C12.5104 3.64583 4.6875 3.63541 2.71875 4.17499C1.6625 4.48124 0.845835 5.30833 0.54896 6.35833L0.543751 6.3802C-0.184374 10.1833 -0.189582 14.7531 0.576043 18.825L0.543751 18.6187C0.845835 19.6906 1.66146 20.5177 2.69792 20.8187L2.71979 20.824C4.66667 21.3542 12.5115 21.3542 12.5115 21.3542C12.5115 21.3542 20.3333 21.3542 22.3031 20.824C23.3604 20.5177 24.1771 19.6906 24.474 18.6406L24.4792 18.6187C24.8104 16.85 25 14.8146 25 12.7354C25 12.6594 25 12.5823 24.999 12.5052C25 12.4344 25 12.35 25 12.2656C25 10.1854 24.8104 8.14999 24.4469 6.17604ZM10.0083 16.3031V8.70624L16.5354 12.5104L10.0083 16.3031Z" fill="#FFF5E5"/>
</g>
<defs>
<clipPath id="clip0">
<rect width="25" height="25" fill="white"/>
</clipPath>
</defs>
</svg>
